<mxfile host="app.diagrams.net" agent="Mozilla/5.0 (Windows NT 10.0; Win64; x64) AppleWebKit/537.36 (KHTML, like Gecko) Chrome/140.0.0.0 Safari/537.36" version="27.2.0">
  <diagram name="第 1 页" id="ujCtVl2hrdgaZUb0fE_l">
    <mxGraphModel dx="1231" dy="728" grid="0" gridSize="10" guides="1" tooltips="1" connect="1" arrows="1" fold="1" page="1" pageScale="1" pageWidth="827" pageHeight="1169" math="0" shadow="0">
      <root>
        <mxCell id="0" />
        <mxCell id="1" parent="0" />
        <mxCell id="BkGL_McaVdjmjKgnnkAn-4" value="" style="swimlane;startSize=0;" parent="1" vertex="1">
          <mxGeometry x="130" y="200" width="200" height="510" as="geometry" />
        </mxCell>
        <mxCell id="BkGL_McaVdjmjKgnnkAn-7" value="铁路安全管理员" style="text;html=1;align=center;verticalAlign=middle;resizable=0;points=[];autosize=1;strokeColor=none;fillColor=none;" parent="BkGL_McaVdjmjKgnnkAn-4" vertex="1">
          <mxGeometry x="40" width="110" height="30" as="geometry" />
        </mxCell>
        <mxCell id="BkGL_McaVdjmjKgnnkAn-10" value="" style="ellipse;whiteSpace=wrap;html=1;aspect=fixed;fillColor=#000000;" parent="BkGL_McaVdjmjKgnnkAn-4" vertex="1">
          <mxGeometry x="80" y="40" width="30" height="30" as="geometry" />
        </mxCell>
        <mxCell id="BkGL_McaVdjmjKgnnkAn-22" style="edgeStyle=orthogonalEdgeStyle;rounded=0;orthogonalLoop=1;jettySize=auto;html=1;exitX=0.5;exitY=0.5;exitDx=0;exitDy=15;exitPerimeter=0;entryX=0.5;entryY=0;entryDx=0;entryDy=0;" parent="BkGL_McaVdjmjKgnnkAn-4" source="BkGL_McaVdjmjKgnnkAn-12" target="BkGL_McaVdjmjKgnnkAn-18" edge="1">
          <mxGeometry relative="1" as="geometry" />
        </mxCell>
        <mxCell id="BkGL_McaVdjmjKgnnkAn-12" value="管理巡查需求" style="html=1;dashed=0;whiteSpace=wrap;shape=mxgraph.dfd.start" parent="BkGL_McaVdjmjKgnnkAn-4" vertex="1">
          <mxGeometry x="55" y="110" width="80" height="30" as="geometry" />
        </mxCell>
        <mxCell id="BkGL_McaVdjmjKgnnkAn-19" style="edgeStyle=orthogonalEdgeStyle;rounded=0;orthogonalLoop=1;jettySize=auto;html=1;exitX=0.5;exitY=1;exitDx=0;exitDy=0;entryX=0.5;entryY=0.5;entryDx=0;entryDy=-15;entryPerimeter=0;" parent="BkGL_McaVdjmjKgnnkAn-4" source="BkGL_McaVdjmjKgnnkAn-10" target="BkGL_McaVdjmjKgnnkAn-12" edge="1">
          <mxGeometry relative="1" as="geometry" />
        </mxCell>
        <mxCell id="BkGL_McaVdjmjKgnnkAn-46" style="edgeStyle=orthogonalEdgeStyle;rounded=0;orthogonalLoop=1;jettySize=auto;html=1;exitX=0.5;exitY=0.5;exitDx=0;exitDy=15;exitPerimeter=0;entryX=0.5;entryY=0;entryDx=0;entryDy=0;" parent="BkGL_McaVdjmjKgnnkAn-4" source="BkGL_McaVdjmjKgnnkAn-15" target="BkGL_McaVdjmjKgnnkAn-45" edge="1">
          <mxGeometry relative="1" as="geometry" />
        </mxCell>
        <mxCell id="BkGL_McaVdjmjKgnnkAn-15" value="查看巡查记录" style="html=1;dashed=0;whiteSpace=wrap;shape=mxgraph.dfd.start" parent="BkGL_McaVdjmjKgnnkAn-4" vertex="1">
          <mxGeometry x="60" y="390" width="80" height="30" as="geometry" />
        </mxCell>
        <mxCell id="BkGL_McaVdjmjKgnnkAn-18" value="" style="shape=rhombus;html=1;dashed=0;whiteSpace=wrap;perimeter=rhombusPerimeter;" parent="BkGL_McaVdjmjKgnnkAn-4" vertex="1">
          <mxGeometry x="65" y="170" width="60" height="50" as="geometry" />
        </mxCell>
        <mxCell id="BkGL_McaVdjmjKgnnkAn-45" value="" style="ellipse;html=1;shape=endState;fillColor=#000000;strokeColor=#ff0000;" parent="BkGL_McaVdjmjKgnnkAn-4" vertex="1">
          <mxGeometry x="80" y="452" width="30" height="30" as="geometry" />
        </mxCell>
        <mxCell id="BkGL_McaVdjmjKgnnkAn-5" value="" style="swimlane;startSize=0;" parent="1" vertex="1">
          <mxGeometry x="330" y="200" width="200" height="510" as="geometry" />
        </mxCell>
        <mxCell id="BkGL_McaVdjmjKgnnkAn-9" value="巡查管理子系统" style="text;html=1;align=center;verticalAlign=middle;resizable=0;points=[];autosize=1;strokeColor=none;fillColor=none;" parent="BkGL_McaVdjmjKgnnkAn-5" vertex="1">
          <mxGeometry x="40" width="110" height="30" as="geometry" />
        </mxCell>
        <mxCell id="BkGL_McaVdjmjKgnnkAn-17" value="发送巡查需求" style="html=1;dashed=0;whiteSpace=wrap;shape=mxgraph.dfd.start" parent="BkGL_McaVdjmjKgnnkAn-5" vertex="1">
          <mxGeometry x="60" y="120" width="80" height="30" as="geometry" />
        </mxCell>
        <mxCell id="BkGL_McaVdjmjKgnnkAn-16" value="更新巡查信息" style="html=1;dashed=0;whiteSpace=wrap;shape=mxgraph.dfd.start" parent="BkGL_McaVdjmjKgnnkAn-5" vertex="1">
          <mxGeometry x="70" y="330" width="80" height="30" as="geometry" />
        </mxCell>
        <mxCell id="BkGL_McaVdjmjKgnnkAn-32" value="" style="shape=rhombus;html=1;dashed=0;whiteSpace=wrap;perimeter=rhombusPerimeter;" parent="BkGL_McaVdjmjKgnnkAn-5" vertex="1">
          <mxGeometry x="80" y="210" width="60" height="50" as="geometry" />
        </mxCell>
        <mxCell id="BkGL_McaVdjmjKgnnkAn-36" style="edgeStyle=orthogonalEdgeStyle;rounded=0;orthogonalLoop=1;jettySize=auto;html=1;exitX=0.5;exitY=1;exitDx=0;exitDy=0;entryX=0.5;entryY=0.5;entryDx=0;entryDy=-15;entryPerimeter=0;" parent="BkGL_McaVdjmjKgnnkAn-5" source="BkGL_McaVdjmjKgnnkAn-32" target="BkGL_McaVdjmjKgnnkAn-16" edge="1">
          <mxGeometry relative="1" as="geometry" />
        </mxCell>
        <mxCell id="BkGL_McaVdjmjKgnnkAn-30" value="生成巡查记录" style="html=1;dashed=0;whiteSpace=wrap;shape=mxgraph.dfd.start" parent="BkGL_McaVdjmjKgnnkAn-5" vertex="1">
          <mxGeometry x="70" y="390" width="80" height="30" as="geometry" />
        </mxCell>
        <mxCell id="BkGL_McaVdjmjKgnnkAn-6" value="" style="swimlane;startSize=0;" parent="1" vertex="1">
          <mxGeometry x="530" y="200" width="200" height="510" as="geometry" />
        </mxCell>
        <mxCell id="BkGL_McaVdjmjKgnnkAn-8" value="网格巡查人员" style="text;html=1;align=center;verticalAlign=middle;resizable=0;points=[];autosize=1;strokeColor=none;fillColor=none;" parent="BkGL_McaVdjmjKgnnkAn-6" vertex="1">
          <mxGeometry x="50" width="100" height="30" as="geometry" />
        </mxCell>
        <mxCell id="BkGL_McaVdjmjKgnnkAn-13" value="接受巡查申请" style="html=1;dashed=0;whiteSpace=wrap;shape=mxgraph.dfd.start" parent="BkGL_McaVdjmjKgnnkAn-6" vertex="1">
          <mxGeometry x="60" y="120" width="80" height="30" as="geometry" />
        </mxCell>
        <mxCell id="BkGL_McaVdjmjKgnnkAn-40" style="edgeStyle=orthogonalEdgeStyle;rounded=0;orthogonalLoop=1;jettySize=auto;html=1;exitX=0.5;exitY=0.5;exitDx=0;exitDy=15;exitPerimeter=0;entryX=0.5;entryY=0;entryDx=0;entryDy=0;" parent="BkGL_McaVdjmjKgnnkAn-6" source="BkGL_McaVdjmjKgnnkAn-14" target="BkGL_McaVdjmjKgnnkAn-33" edge="1">
          <mxGeometry relative="1" as="geometry" />
        </mxCell>
        <mxCell id="BkGL_McaVdjmjKgnnkAn-14" value="进行巡查任务" style="html=1;dashed=0;whiteSpace=wrap;shape=mxgraph.dfd.start" parent="BkGL_McaVdjmjKgnnkAn-6" vertex="1">
          <mxGeometry x="60" y="220" width="80" height="30" as="geometry" />
        </mxCell>
        <mxCell id="BkGL_McaVdjmjKgnnkAn-28" style="edgeStyle=orthogonalEdgeStyle;rounded=0;orthogonalLoop=1;jettySize=auto;html=1;exitX=0.5;exitY=0.5;exitDx=0;exitDy=15;exitPerimeter=0;entryX=0.5;entryY=0.5;entryDx=0;entryDy=-15;entryPerimeter=0;" parent="BkGL_McaVdjmjKgnnkAn-6" source="BkGL_McaVdjmjKgnnkAn-13" target="BkGL_McaVdjmjKgnnkAn-14" edge="1">
          <mxGeometry relative="1" as="geometry" />
        </mxCell>
        <mxCell id="BkGL_McaVdjmjKgnnkAn-33" value="" style="shape=rhombus;html=1;dashed=0;whiteSpace=wrap;perimeter=rhombusPerimeter;" parent="BkGL_McaVdjmjKgnnkAn-6" vertex="1">
          <mxGeometry x="70" y="275" width="60" height="50" as="geometry" />
        </mxCell>
        <mxCell id="BkGL_McaVdjmjKgnnkAn-23" style="edgeStyle=orthogonalEdgeStyle;rounded=0;orthogonalLoop=1;jettySize=auto;html=1;exitX=1;exitY=0;exitDx=0;exitDy=0;entryX=0;entryY=0.5;entryDx=0;entryDy=0;entryPerimeter=0;" parent="1" source="BkGL_McaVdjmjKgnnkAn-18" target="BkGL_McaVdjmjKgnnkAn-17" edge="1">
          <mxGeometry relative="1" as="geometry" />
        </mxCell>
        <mxCell id="BkGL_McaVdjmjKgnnkAn-26" style="edgeStyle=orthogonalEdgeStyle;rounded=0;orthogonalLoop=1;jettySize=auto;html=1;exitX=1;exitY=0.5;exitDx=0;exitDy=0;exitPerimeter=0;entryX=0;entryY=0.5;entryDx=0;entryDy=0;entryPerimeter=0;" parent="1" source="BkGL_McaVdjmjKgnnkAn-17" target="BkGL_McaVdjmjKgnnkAn-13" edge="1">
          <mxGeometry relative="1" as="geometry" />
        </mxCell>
        <mxCell id="BkGL_McaVdjmjKgnnkAn-34" style="edgeStyle=orthogonalEdgeStyle;rounded=0;orthogonalLoop=1;jettySize=auto;html=1;exitX=1;exitY=1;exitDx=0;exitDy=0;entryX=0;entryY=0.5;entryDx=0;entryDy=0;" parent="1" source="BkGL_McaVdjmjKgnnkAn-18" target="BkGL_McaVdjmjKgnnkAn-32" edge="1">
          <mxGeometry relative="1" as="geometry" />
        </mxCell>
        <mxCell id="BkGL_McaVdjmjKgnnkAn-41" style="edgeStyle=orthogonalEdgeStyle;rounded=0;orthogonalLoop=1;jettySize=auto;html=1;exitX=0;exitY=0;exitDx=0;exitDy=0;entryX=1;entryY=0.5;entryDx=0;entryDy=0;" parent="1" source="BkGL_McaVdjmjKgnnkAn-33" target="BkGL_McaVdjmjKgnnkAn-32" edge="1">
          <mxGeometry relative="1" as="geometry" />
        </mxCell>
        <mxCell id="BkGL_McaVdjmjKgnnkAn-43" style="edgeStyle=orthogonalEdgeStyle;rounded=0;orthogonalLoop=1;jettySize=auto;html=1;exitX=0.5;exitY=1;exitDx=0;exitDy=0;entryX=1;entryY=0.5;entryDx=0;entryDy=0;entryPerimeter=0;" parent="1" source="BkGL_McaVdjmjKgnnkAn-33" target="BkGL_McaVdjmjKgnnkAn-30" edge="1">
          <mxGeometry relative="1" as="geometry" />
        </mxCell>
        <mxCell id="BkGL_McaVdjmjKgnnkAn-44" style="edgeStyle=orthogonalEdgeStyle;rounded=0;orthogonalLoop=1;jettySize=auto;html=1;exitX=0;exitY=0.5;exitDx=0;exitDy=0;exitPerimeter=0;entryX=1;entryY=0.5;entryDx=0;entryDy=0;entryPerimeter=0;" parent="1" source="BkGL_McaVdjmjKgnnkAn-30" target="BkGL_McaVdjmjKgnnkAn-15" edge="1">
          <mxGeometry relative="1" as="geometry" />
        </mxCell>
      </root>
    </mxGraphModel>
  </diagram>
</mxfile>
